<svg xmlns="http://www.w3.org/2000/svg" viewBox="0 0 150 150"><defs><style>.cls-1{fill:#fefefe;}.cls-2{fill:#fed83f;}.cls-3{fill:#feb413;}.cls-4{fill:#feb71e;}.cls-5{fill:#fed842;}.cls-6{fill:#feb518;}.cls-7{fill:#fefefd;}.cls-8{fill:#fefdfa;}.cls-9{fill:#fefdfb;}</style></defs><g id="Layer_2" data-name="Layer 2"><g id="Layer_1-2" data-name="Layer 1"><path class="cls-1" d="M.07.07Q73.51.07,146.93,0C149.5,0,150,.5,150,3.07q-.15,71.93,0,143.86c0,2.57-.5,3.08-3.07,3.07Q75,149.85,3.07,150C.5,150,0,149.5,0,146.93Q.15,73.51.07.07Z"/><path class="cls-2" d="M26.63,74.29c-3.25,0-6.5-.12-9.74,0-2.18.1-2.71-.76-2.74-2.82-.07-5.8,1.9-9.62,6.15-11.33,5.23-2.1,13.05-.92,16.25,2.39,2.81,2.91,2.75,6.52,2.6,10.17-.06,1.71-1.3,1.53-2.41,1.54C33.37,74.3,30,74.29,26.63,74.29Z"/><path class="cls-3" d="M20.91,89.23c0-3.6,0-6.92,0-10.24,0-1.24.47-1.88,1.75-1.79.25,0,.5,0,.75,0,10.35-.55,10.76,0,9.53,11.78-2.19,0-3.77-2.28-5.78-2S23.27,88.31,20.91,89.23Z"/><path class="cls-4" d="M48.26,70.32c-1.62,0-3.24,0-4.86,0-.91,0-1.86-.13-1.74-1.36.09-1,1-.93,1.73-.94,2.37,0,4.75-.13,7.11,0S53.22,67,53,65c-.46-4.21-3.38-7.14-7.62-7.25-2.59-.07-5.23-.46-7.78.38-.82.27-1.44.26-1.82-.64s.09-1.16.76-1.32c4.55-1.07,9.17-1.6,13.48.55,3.95,2,5.21,5.64,5.44,9.94.16,3.08-1,4-3.85,3.67a26.88,26.88,0,0,0-3.36,0Z"/><path class="cls-5" d="M26.69,58.74a6.83,6.83,0,0,1-6.91-6.84,7.22,7.22,0,0,1,6.75-6.79,7.25,7.25,0,0,1,7.11,6.8A6.9,6.9,0,0,1,26.69,58.74Z"/><path class="cls-6" d="M42.67,54.21a6.55,6.55,0,0,1-6.73-6.89,6.8,6.8,0,0,1,13.59.07A6.68,6.68,0,0,1,42.67,54.21Z"/><path class="cls-7" d="M26.84,72c-2.73,0-5.46-.06-8.19,0-1.59,0-2.32-.53-2.15-2.14,0-.25,0-.5,0-.75.19-5,3.84-7.52,10.77-7.48,5.91,0,9.39,2.83,9.62,7.55.1,2-.38,3-2.62,2.84C31.81,71.87,29.32,72,26.84,72Z"/><path class="cls-8" d="M26.41,56.43a4.09,4.09,0,0,1-4.2-4.6,4.19,4.19,0,0,1,4.67-4.31,4.27,4.27,0,0,1,4.35,4.67C31.12,54.87,29.41,56.47,26.41,56.43Z"/><path class="cls-9" d="M47.31,47.6c-.45,2.65-1.85,4.38-4.71,4.27s-4.38-1.76-4.33-4.57A4.13,4.13,0,0,1,42.85,43C45.59,43,47,44.83,47.31,47.6Z"/><path d="M46.57,93.34a5,5,0,0,1-2.11-2.17,8.4,8.4,0,0,1-.63-2.44c0-.55-.09-1.44-.09-2V84.06c0-.55,0-1.45.09-2a8.47,8.47,0,0,1,.63-2.44,5,5,0,0,1,2.11-2.17,6.88,6.88,0,0,1,3.33-.75,5.89,5.89,0,0,1,2.87.69,5.58,5.58,0,0,1,2.09,2,9.63,9.63,0,0,1,.9,2.21.74.74,0,0,1-.75,1H53.68a1.43,1.43,0,0,1-1.29-1,4,4,0,0,0-.29-.48,2.77,2.77,0,0,0-1-.92,2.49,2.49,0,0,0-1.25-.31,2.94,2.94,0,0,0-1.53.37,2.3,2.3,0,0,0-1,1.07,2.87,2.87,0,0,0-.25.71c0,.55-.09,1.45-.09,2v2.68c0,.55,0,1.44.09,2a2.61,2.61,0,0,0,.25.7,2.37,2.37,0,0,0,1,1.08,3,3,0,0,0,1.53.37,2.68,2.68,0,0,0,1.27-.31,2.74,2.74,0,0,0,.95-.91,3,3,0,0,0,.28-.5,1.42,1.42,0,0,1,1.28-1H55a.73.73,0,0,1,.74,1,9.63,9.63,0,0,1-.9,2.22,5.79,5.79,0,0,1-2.08,2,5.89,5.89,0,0,1-2.87.69A6.88,6.88,0,0,1,46.57,93.34Z"/><path d="M58.7,77.87a1,1,0,0,1,1-1h1.21a1,1,0,0,1,1,1v15a1,1,0,0,1-1,1H59.7a1,1,0,0,1-1-1Zm1.62,13.95a1,1,0,0,1,1-1h2.09a16.64,16.64,0,0,0,2-.14,3.22,3.22,0,0,0,1.46-.62,2.21,2.21,0,0,0,.69-1.18,13.12,13.12,0,0,0,.17-2v-3a13.12,13.12,0,0,0-.17-2,2.2,2.2,0,0,0-.69-1.17,3.17,3.17,0,0,0-1.46-.63,19,19,0,0,0-2-.13H61.32a1,1,0,0,1-1-1v-1.1a1,1,0,0,1,1-1h2c.55,0,1.45,0,2,.09a9.69,9.69,0,0,1,2.65.63,5.09,5.09,0,0,1,2.29,2.08A7.17,7.17,0,0,1,70.94,82c.06.55.11,1.45.11,2v2.83c0,.55,0,1.44-.11,2A7.07,7.07,0,0,1,70.3,91,5.21,5.21,0,0,1,68,93.15a9.43,9.43,0,0,1-2.71.67c-.55.05-1.44.09-2,.09h-2a1,1,0,0,1-1-1Z"/><path d="M74.22,77.87a1,1,0,0,1,1-1h1.21a1,1,0,0,1,1,1v15a1,1,0,0,1-1,1H75.22a1,1,0,0,1-1-1Zm1.16,0a1,1,0,0,1,1-1h8.25a1,1,0,0,1,1,1V79a1,1,0,0,1-1,1H76.38a1,1,0,0,1-1-1Zm0,7a1,1,0,0,1,1-1h7a1,1,0,0,1,1,1V86a1,1,0,0,1-1,1h-7a1,1,0,0,1-1-1Zm0,6.92a1,1,0,0,1,1-1h8.25a1,1,0,0,1,1,1v1.09a1,1,0,0,1-1,1H76.38a1,1,0,0,1-1-1Z"/><path d="M88.56,77.87a1,1,0,0,1,1-1h1.93a1.75,1.75,0,0,1,1.43.9L98.39,89a2,2,0,0,1,.3,1c-.08.08-.15-.3-.15-.85V77.87a1,1,0,0,1,1-1h1.08a1,1,0,0,1,1,1v15a1,1,0,0,1-1,1h-2a1.74,1.74,0,0,1-1.44-.9L91.79,81.94c-.24-.49-.38-1-.3-1s.14.3.14.85V92.9a1,1,0,0,1-1,1H89.56a1,1,0,0,1-1-1Z"/><path d="M104,77.87a1,1,0,0,1,1-1h10.49a1,1,0,0,1,1,1V79a1,1,0,0,1-1,1H105a1,1,0,0,1-1-1Zm4.64,1.4a1,1,0,0,1,1-1h1.21a1,1,0,0,1,1,1V92.91a1,1,0,0,1-1,1H109.6a1,1,0,0,1-1-1Z"/></g></g></svg>